<svg width="11" height="11" viewBox="0 0 11 11" fill="none" xmlns="http://www.w3.org/2000/svg">
<g clip-path="url(#clip0_1:960)">
<path d="M8.28948 2.496H2.68422C2.44683 2.496 2.25439 2.68813 2.25439 2.92514C2.25439 3.16215 2.44683 3.35428 2.68422 3.35428H8.28948C8.52687 3.35428 8.71931 3.16215 8.71931 2.92514C8.71931 2.68813 8.52687 2.496 8.28948 2.496Z" fill="black"/>
<path d="M8.28948 4.36145H2.68422C2.44683 4.36145 2.25439 4.55358 2.25439 4.79059C2.25439 5.0276 2.44683 5.21973 2.68422 5.21973H8.28948C8.52687 5.21973 8.71931 5.0276 8.71931 4.79059C8.71931 4.55358 8.52687 4.36145 8.28948 4.36145Z" fill="black"/>
<path d="M4.78071 6.1481H2.68422C2.44683 6.1481 2.25439 6.34023 2.25439 6.57724C2.25439 6.81425 2.44683 7.00638 2.68422 7.00638H4.78071C5.0181 7.00638 5.21054 6.81425 5.21054 6.57724C5.21054 6.34023 5.0181 6.1481 4.78071 6.1481Z" fill="black"/>
<path d="M9.28076 8.5672e-08H1.71935C1.26156 -0.000142768 0.821845 0.178371 0.494066 0.497446C0.166287 0.816522 -0.0235894 1.25087 -0.0350342 1.70779V9.27468C-0.0350342 9.73923 0.149803 10.1848 0.478814 10.5132C0.807825 10.8417 1.25406 11.0263 1.71935 11.0263H8.0176L10.9825 8.09235V1.75159C10.9827 1.296 10.8051 0.858247 10.4874 0.53123C10.1697 0.204212 9.73687 0.0136677 9.28076 8.5672e-08ZM8.22812 9.8352V8.59156C8.22812 8.50097 8.26417 8.41408 8.32832 8.35003C8.39248 8.28597 8.4795 8.24999 8.57023 8.24999H9.82462L8.22812 9.8352ZM8.57023 7.56687C8.29722 7.56686 8.03526 7.67453 7.8414 7.86645C7.64753 8.05837 7.53745 8.31899 7.53514 8.59156V10.1505H1.71935C1.48671 10.1505 1.26359 10.0582 1.09908 9.89395C0.934578 9.7297 0.842159 9.50695 0.842159 9.27468V1.70779C0.842159 1.47551 0.934578 1.25276 1.09908 1.08852C1.26359 0.924274 1.48671 0.83199 1.71935 0.83199H9.28076C9.5134 0.83199 9.73652 0.924274 9.90103 1.08852C10.0655 1.25276 10.1579 1.47551 10.1579 1.70779V7.56687H8.57023Z" fill="black"/>
</g>
<defs>
<clipPath id="clip0_1:960">
<rect width="11" height="11" fill="white"/>
</clipPath>
</defs>
</svg>
