<svg width="11" height="11" viewBox="0 0 11 11" fill="none" xmlns="http://www.w3.org/2000/svg">
<mask id="mask0_1:630" style="mask-type:alpha" maskUnits="userSpaceOnUse" x="0" y="0" width="11" height="11">
<path fill-rule="evenodd" clip-rule="evenodd" d="M5.5 0C8.53757 0 11 2.46243 11 5.5C11 8.53757 8.53757 11 5.5 11C2.46243 11 0 8.53757 0 5.5C0 2.46243 2.46243 0 5.5 0ZM5.5 0.916667C2.96869 0.916667 0.916667 2.96869 0.916667 5.5C0.916667 8.03131 2.96869 10.0833 5.5 10.0833C8.03131 10.0833 10.0833 8.03131 10.0833 5.5C10.0833 2.96869 8.03131 0.916667 5.5 0.916667ZM5.04167 8.25C5.04167 8.50313 5.24687 8.70833 5.5 8.70833C5.75313 8.70833 5.95833 8.50313 5.95833 8.25V5.5C5.95833 5.24687 5.75313 5.04167 5.5 5.04167C5.24687 5.04167 5.04167 5.24687 5.04167 5.5V8.25ZM5.5 4.35417C5.12016 4.35417 4.8125 4.04651 4.8125 3.66667C4.8125 3.28682 5.12016 2.97917 5.5 2.97917C5.87984 2.97917 6.1875 3.28682 6.1875 3.66667C6.1875 4.04651 5.87984 4.35417 5.5 4.35417Z" fill="white"/>
</mask>
<g mask="url(#mask0_1:630)">
<rect x="-3.66663" y="-4.58334" width="18.3333" height="18.3333" fill="black"/>
</g>
</svg>
